<svg xmlns="http://www.w3.org/2000/svg" fill="none" viewBox="0 0 106 24">
  <defs/>
  <path fill="#000" d="M13 22.234v-10.8L3.944 6 12 1.166l9 5.4v10.868l-8 4.8z"/>
  <path fill="#000" d="M3 17.434V7.766l3 1.8v6l5 3v3.668l-8-4.8z"/>
  <path fill="#000" fill-rule="evenodd" d="M35.171 5v10.958h4.23V18H33V5h2.171zm11.812 3.923h2.106v9.076h-2.106v-.95c-.864.807-1.793 1.211-2.787 1.211-1.255 0-2.292-.454-3.112-1.36-.814-.926-1.22-2.082-1.22-3.467 0-1.36.406-2.494 1.22-3.401.814-.907 1.833-1.36 3.056-1.36 1.057 0 2.004.434 2.843 1.304V8.923zm-4.976 4.51c0 .87.233 1.578.698 2.125a2.29 2.29 0 001.808.829c.777 0 1.404-.267 1.883-.801.478-.553.717-1.255.717-2.106s-.24-1.553-.717-2.106c-.479-.54-1.1-.811-1.864-.811-.72 0-1.323.273-1.808.82-.478.553-.717 1.236-.717 2.05zM53.063 4v5.976c.839-.87 1.79-1.305 2.852-1.305 1.223 0 2.242.457 3.056 1.37.814.907 1.22 2.038 1.22 3.392 0 1.398-.41 2.553-1.23 3.466-.813.907-1.841 1.361-3.084 1.361-1.05 0-1.988-.404-2.814-1.211v.95h-2.097V4h2.097zm4.985 9.526c0-.87-.236-1.578-.708-2.124-.478-.56-1.078-.84-1.798-.84-.77 0-1.398.271-1.883.812-.478.534-.717 1.23-.717 2.087 0 .882.236 1.587.708 2.115.472.54 1.094.811 1.864.811.727 0 1.33-.27 1.808-.81.484-.547.726-1.23.726-2.05zm11.858.429h-6.504c.056.745.298 1.339.727 1.78.429.434.978.652 1.65.652.521 0 .953-.124 1.295-.373.335-.248.717-.708 1.146-1.379l1.77.988a7.04 7.04 0 01-.866 1.197c-.305.333-.63.606-.979.82a3.924 3.924 0 01-1.127.47c-.404.1-.842.15-1.314.15-1.354 0-2.442-.435-3.262-1.305-.82-.875-1.23-2.037-1.23-3.485 0-1.435.398-2.597 1.193-3.485.801-.876 1.864-1.314 3.187-1.314 1.336 0 2.392.426 3.168 1.277.77.845 1.156 2.016 1.156 3.513l-.01.494zm-2.152-1.715c-.292-1.118-.997-1.677-2.115-1.677-.255 0-.494.039-.718.116-.224.078-.427.19-.61.336-.184.146-.34.321-.47.526-.131.205-.23.438-.299.7h4.212zM73.527 4v14H71.43V4h2.097zm3.984 0v5.976c.838-.87 1.789-1.305 2.851-1.305 1.224 0 2.243.457 3.057 1.37.814.907 1.22 2.038 1.22 3.392 0 1.398-.41 2.553-1.23 3.466-.813.907-1.842 1.361-3.084 1.361-1.05 0-1.988-.404-2.814-1.211v.95h-2.097V4h2.097zm4.985 9.526c0-.87-.236-1.578-.708-2.124-.478-.56-1.078-.84-1.798-.84-.77 0-1.398.271-1.883.812-.478.534-.717 1.23-.717 2.087 0 .882.236 1.587.708 2.115.472.54 1.093.811 1.864.811.726 0 1.329-.27 1.807-.81.485-.547.727-1.23.727-2.05zm3.164-.13c0-1.311.469-2.426 1.407-3.346.938-.92 2.081-1.379 3.43-1.379 1.354 0 2.503.463 3.447 1.389.932.925 1.398 2.062 1.398 3.41 0 1.36-.47 2.5-1.407 3.42-.945.913-2.103 1.37-3.476 1.37-1.36 0-2.5-.466-3.42-1.398-.92-.92-1.38-2.075-1.38-3.466zm2.143.037c0 .907.243 1.624.727 2.153.497.534 1.152.801 1.966.801.82 0 1.476-.264 1.967-.792.49-.528.736-1.233.736-2.115 0-.883-.246-1.588-.736-2.116-.497-.534-1.153-.801-1.967-.801-.801 0-1.45.267-1.947.801-.497.534-.746 1.224-.746 2.069zm11.346-.345l-3.262-4.165h2.498l2.022 2.646 2.059-2.646h2.572l-3.355 4.165L105.569 18h-2.497l-2.665-3.392L97.677 18h-2.563l4.035-4.91z" clip-rule="evenodd"/>
</svg>
